<svg width="61" height="61" viewBox="0 0 61 61" fill="none" xmlns="http://www.w3.org/2000/svg">
<circle cx="30.5" cy="30.5" r="30.5" fill="#D9D9D9"/>
<path d="M30.5011 32.3818C35.7652 32.3818 40.0325 28.1672 40.0325 22.9683C40.0325 17.7693 35.7652 13.5547 30.5011 13.5547C25.2371 13.5547 20.9697 17.7693 20.9697 22.9683C20.9697 28.1672 25.2371 32.3818 30.5011 32.3818Z" fill="#6E7191"/>
<path d="M45.7344 41.8109C45.743 41.6769 45.743 41.5426 45.7344 41.4086C45.6967 40.9134 45.5562 40.4298 45.3208 39.9849C44.3942 38.1744 41.7966 37.3543 39.6291 36.8901C38.0827 36.5681 36.5115 36.3612 34.9301 36.2711L33.2756 36.1473H32.531H31.6045H29.3874H28.4608H27.7163L26.0617 36.2711C24.4804 36.3612 22.9092 36.5681 21.3628 36.8901C19.1953 37.2924 16.5976 38.128 15.6711 39.9849C15.4356 40.4298 15.2951 40.9134 15.2574 41.4086C15.2488 41.5426 15.2488 41.6769 15.2574 41.8109C15.2495 41.9449 15.2495 42.0792 15.2574 42.2132C15.3024 42.7042 15.4485 43.1823 15.6876 43.6214C16.6142 45.4319 19.2118 46.2521 21.3793 46.7163C22.9286 47.0231 24.4986 47.23 26.0783 47.3353L27.7328 47.4436H28.1299H28.4774H32.5476H32.895H33.2921L34.9467 47.3353C36.5263 47.23 38.0964 47.0231 39.6456 46.7163C41.8131 46.2985 44.4108 45.4783 45.3373 43.6214C45.5653 43.1684 45.7054 42.6811 45.751 42.1823C45.7531 42.0583 45.7476 41.9343 45.7344 41.8109Z" fill="#6E7191"/>
</svg>
