<svg width="79" height="71" viewBox="0 0 79 71" fill="none" xmlns="http://www.w3.org/2000/svg">
<path d="M75.8115 50.2647H23.4727L26.1006 44.9121L69.7646 44.833C71.2412 44.833 72.5068 43.7783 72.7705 42.3193L78.8174 8.47266C78.9756 7.58496 78.7383 6.6709 78.1582 5.97656C77.8715 5.63485 77.5139 5.35959 77.1102 5.16988C76.7065 4.98017 76.2663 4.88055 75.8203 4.87793L20.2734 4.69336L19.7988 2.46094C19.5 1.03711 18.2168 0 16.7578 0H3.17871C2.35587 0 1.56672 0.326873 0.984884 0.908712C0.403046 1.49055 0.0761719 2.2797 0.0761719 3.10254C0.0761719 3.92538 0.403046 4.71453 0.984884 5.29637C1.56672 5.8782 2.35587 6.20508 3.17871 6.20508H14.2441L16.3184 16.0664L21.4248 40.79L14.8506 51.5215C14.5092 51.9823 14.3035 52.5294 14.2569 53.101C14.2103 53.6726 14.3246 54.2459 14.5869 54.7559C15.1143 55.8018 16.1777 56.4609 17.3555 56.4609H22.875C21.6983 58.0238 21.0627 59.9275 21.0645 61.8838C21.0645 66.8584 25.1074 70.9014 30.082 70.9014C35.0566 70.9014 39.0996 66.8584 39.0996 61.8838C39.0996 59.9238 38.4492 58.0166 37.2891 56.4609H51.4482C50.2715 58.0238 49.636 59.9275 49.6377 61.8838C49.6377 66.8584 53.6807 70.9014 58.6553 70.9014C63.6299 70.9014 67.6728 66.8584 67.6728 61.8838C67.6728 59.9238 67.0225 58.0166 65.8623 56.4609H75.8203C77.5254 56.4609 78.9228 55.0723 78.9228 53.3584C78.9177 52.5364 78.5877 51.7498 78.0049 51.1702C77.422 50.5906 76.6335 50.2651 75.8115 50.2647ZM21.5654 10.8105L72.1728 10.9775L67.2158 38.7334L27.4629 38.8037L21.5654 10.8105ZM30.082 64.6611C28.5527 64.6611 27.3047 63.4131 27.3047 61.8838C27.3047 60.3545 28.5527 59.1064 30.082 59.1064C31.6113 59.1064 32.8594 60.3545 32.8594 61.8838C32.8594 62.6204 32.5668 63.3268 32.0459 63.8477C31.5251 64.3685 30.8186 64.6611 30.082 64.6611ZM58.6553 64.6611C57.126 64.6611 55.8779 63.4131 55.8779 61.8838C55.8779 60.3545 57.126 59.1064 58.6553 59.1064C60.1846 59.1064 61.4326 60.3545 61.4326 61.8838C61.4326 62.6204 61.14 63.3268 60.6191 63.8477C60.0983 64.3685 59.3919 64.6611 58.6553 64.6611Z" fill="#518E99"/>
</svg>
