<svg width="20" height="14" viewBox="0 0 20 14" fill="none" xmlns="http://www.w3.org/2000/svg">
<path d="M6.93753 13.9688C6.77086 13.9688 6.61461 13.9425 6.46878 13.89C6.32295 13.8383 6.18753 13.75 6.06253 13.625L0.687532 8.25C0.458365 8.02083 0.348781 7.72375 0.358781 7.35875C0.369615 6.99458 0.489614 6.69792 0.718781 6.46875C0.947948 6.23958 1.23961 6.125 1.59378 6.125C1.94795 6.125 2.23961 6.23958 2.46878 6.46875L6.93753 10.9375L17.5313 0.34375C17.7604 0.114583 18.0575 0 18.4225 0C18.7867 0 19.0834 0.114583 19.3125 0.34375C19.5417 0.572917 19.6563 0.869583 19.6563 1.23375C19.6563 1.59875 19.5417 1.89583 19.3125 2.125L7.81253 13.625C7.68753 13.75 7.55211 13.8383 7.40628 13.89C7.26045 13.9425 7.1042 13.9688 6.93753 13.9688Z" fill="white"/>
</svg>
