<svg width="564" height="376" viewBox="0 0 564 376" fill="none" xmlns="http://www.w3.org/2000/svg">
<path d="M165.356 91.8193L80.9785 148.182L164.087 272.252L248.464 215.89L165.356 91.8193Z" fill="#F5F5F5"/>
<path d="M204.859 210.014L203.904 215.932L161.957 209.894L162.912 203.977L204.859 210.014Z" fill="#EFF0F7"/>
<path d="M183.734 188.904L189.75 189.768L183.08 231.01L177.057 230.139L183.734 188.904Z" fill="#EFF0F7"/>
<path d="M145.099 136.487C145.159 136.578 136.707 142.33 126.216 149.336C115.726 156.343 107.176 161.952 107.116 161.862C107.055 161.772 115.508 156.02 125.998 149.013C136.489 141.999 145.039 136.397 145.099 136.487Z" fill="#EFF0F7"/>
<path d="M176.135 128.706C176.195 128.796 162.132 138.295 144.731 149.913C127.322 161.537 113.17 170.887 113.11 170.797C113.049 170.707 127.104 161.214 144.513 149.582C161.914 137.965 176.075 128.616 176.135 128.706Z" fill="#EFF0F7"/>
<path d="M182.351 137.989C182.412 138.079 168.349 147.579 150.948 159.196C133.539 170.821 119.387 180.17 119.326 180.08C119.266 179.99 133.321 170.498 150.73 158.865C168.131 147.256 182.291 137.899 182.351 137.989Z" fill="#EFF0F7"/>
<path d="M188.568 147.28C188.628 147.37 174.566 156.87 157.165 168.487C139.756 180.112 125.603 189.461 125.543 189.371C125.483 189.281 139.538 179.789 156.947 168.156C174.348 156.539 188.508 147.19 188.568 147.28Z" fill="#EFF0F7"/>
<path d="M194.791 156.567C194.851 156.657 180.789 166.157 163.387 177.774C145.979 189.399 131.826 198.748 131.766 198.658C131.706 198.568 145.761 189.076 163.169 177.444C180.571 165.826 194.731 156.477 194.791 156.567Z" fill="#EFF0F7"/>
<path d="M447.504 174.956L376.641 222.291L446.436 326.487L517.299 279.152L447.504 174.956Z" fill="#F5F5F5"/>
<path d="M480.681 274.231L479.876 279.202L444.652 274.133L445.449 269.162L480.681 274.231Z" fill="#EFF0F7"/>
<path d="M462.94 256.502L467.993 257.23L462.391 291.864L457.33 291.136L462.94 256.502Z" fill="#EFF0F7"/>
<path d="M430.494 212.484C430.554 212.574 423.462 217.417 414.649 223.297C405.836 229.185 398.646 233.878 398.586 233.788C398.526 233.698 405.617 228.854 414.431 222.967C423.244 217.087 430.434 212.394 430.494 212.484Z" fill="#EFF0F7"/>
<path d="M456.549 205.952C456.609 206.042 444.81 214.032 430.191 223.795C415.572 233.557 403.676 241.397 403.615 241.307C403.555 241.217 415.354 233.234 429.973 223.464C444.592 213.702 456.489 205.862 456.549 205.952Z" fill="#EFF0F7"/>
<path d="M461.771 213.747C461.832 213.837 450.033 221.827 435.414 231.589C420.795 241.352 408.898 249.192 408.838 249.102C408.778 249.011 420.577 241.029 435.196 231.259C449.815 221.504 461.711 213.664 461.771 213.747Z" fill="#EFF0F7"/>
<path d="M467.002 221.546C467.062 221.636 455.263 229.626 440.644 239.388C426.025 249.151 414.129 256.991 414.069 256.901C414.008 256.81 425.807 248.828 440.426 239.058C455.038 229.296 466.942 221.456 467.002 221.546Z" fill="#EFF0F7"/>
<path d="M472.223 229.35C472.283 229.44 460.484 237.431 445.865 247.193C431.246 256.955 419.349 264.795 419.289 264.705C419.229 264.615 431.028 256.632 445.647 246.863C460.266 237.1 472.162 229.26 472.223 229.35Z" fill="#EFF0F7"/>
<path d="M335.387 96.37L258.068 55.0762L197.18 168.768L274.499 210.061L335.387 96.37Z" fill="#F5F5F5"/>
<path d="M261.259 174.5L256.355 176.174L243.902 141.803L248.805 140.121L261.259 174.5Z" fill="#EFF0F7"/>
<path d="M268.778 149.84L270.567 154.774L236.382 166.466L234.592 161.532L268.778 149.84Z" fill="#EFF0F7"/>
<path d="M293.07 99.1193C293.01 99.232 285.167 95.1618 275.556 90.0253C265.938 84.8888 258.2 80.6384 258.26 80.5257C258.32 80.4131 266.164 84.4832 275.774 89.6198C285.392 94.7563 293.13 99.0067 293.07 99.1193Z" fill="#EFF0F7"/>
<path d="M311.631 119.575C311.571 119.688 298.591 112.877 282.649 104.361C266.699 95.8453 253.817 88.8464 253.877 88.7338C253.937 88.6212 266.917 95.4323 282.867 103.956C298.809 112.464 311.691 119.463 311.631 119.575Z" fill="#EFF0F7"/>
<path d="M307.072 128.083C307.012 128.196 294.032 121.385 278.09 112.869C262.14 104.353 249.258 97.3543 249.319 97.2416C249.379 97.129 262.358 103.94 278.308 112.463C294.251 120.972 307.132 127.971 307.072 128.083Z" fill="#EFF0F7"/>
<path d="M302.516 136.593C302.455 136.706 289.476 129.895 273.533 121.379C257.584 112.863 244.702 105.864 244.762 105.751C244.822 105.639 257.802 112.45 273.752 120.973C289.694 129.481 302.576 136.48 302.516 136.593Z" fill="#EFF0F7"/>
<path d="M297.959 145.099C297.899 145.212 284.919 138.4 268.977 129.885C253.027 121.369 240.145 114.37 240.205 114.257C240.265 114.145 253.245 120.956 269.195 129.479C285.137 137.987 298.019 144.986 297.959 145.099Z" fill="#EFF0F7"/>
<path opacity="0.2" d="M298.356 0H296.416V33.0269H298.356V0Z" fill="black"/>
<path d="M252.094 72.9849H342.68C342.68 72.9849 334.317 33.0117 296.702 33.0117C263.246 33.0117 252.094 72.9849 252.094 72.9849Z" fill="#518E99"/>
<path d="M298.356 0H296.416V33.0269H298.356V0Z" fill="#518E99"/>
<path d="M499.08 330.293C499.08 330.398 401.884 330.488 282.015 330.488C162.101 330.488 64.9277 330.398 64.9277 330.293C64.9277 330.188 162.101 330.098 282.015 330.098C401.884 330.098 499.08 330.18 499.08 330.293Z" fill="#263238"/>
<path d="M88.958 283.258C91.4997 283.348 93.8836 284.722 95.5605 286.637C97.2375 288.545 98.2677 290.948 98.922 293.403C100.193 298.149 99.4108 303.759 98.0572 308.482C92.906 306.642 89.7325 301.161 88.2962 298.277C86.0327 293.726 84.7016 284.114 88.958 283.258Z" fill="#518E99"/>
<path d="M105.463 314.236C103.838 311.908 103.801 308.671 105.087 306.133C106.373 303.602 108.839 301.777 111.554 300.944C112.81 300.561 114.269 300.396 115.359 301.124C116.382 301.807 116.825 303.144 116.69 304.361C116.555 305.577 115.938 306.696 115.209 307.68C112.704 311.074 109.666 313.89 105.463 314.236Z" fill="#518E99"/>
<path d="M106.036 330.104C106.013 330.111 105.931 329.758 105.803 329.12C105.667 328.414 105.487 327.505 105.276 326.417C104.87 324.141 104.224 320.905 104.712 317.33C105.179 313.771 106.6 310.722 108.089 308.904C108.818 307.988 109.525 307.335 110.044 306.937C110.292 306.727 110.518 306.599 110.653 306.494C110.796 306.396 110.879 306.351 110.886 306.366C110.939 306.426 109.683 307.207 108.292 309.062C106.886 310.887 105.532 313.876 105.066 317.383C104.585 320.89 105.179 324.096 105.525 326.379C105.705 327.528 105.855 328.459 105.946 329.105C106.021 329.743 106.058 330.104 106.036 330.104Z" fill="#263238"/>
<path d="M90.6121 290.491C90.6272 290.483 90.6948 290.618 90.8227 290.881C90.958 291.174 91.1385 291.557 91.3566 292.022C91.8078 293.021 92.4545 294.471 93.2291 296.265C94.7782 299.862 96.8537 304.864 99.0195 310.428C101.185 316 103.028 321.092 104.306 324.787C104.945 326.634 105.457 328.136 105.795 329.18C105.953 329.675 106.081 330.073 106.179 330.381C106.261 330.659 106.299 330.802 106.291 330.809C106.276 330.817 106.216 330.674 106.111 330.404C105.998 330.096 105.848 329.705 105.667 329.225C105.276 328.158 104.735 326.679 104.073 324.869C102.727 321.189 100.847 316.121 98.6886 310.548C96.5228 304.984 94.4924 299.975 93.0035 296.355C92.274 294.576 91.6724 293.119 91.2363 292.068C91.0408 291.587 90.8904 291.196 90.77 290.896C90.6497 290.633 90.6046 290.491 90.6121 290.491Z" fill="#263238"/>
<path d="M99.9226 319.603C96.8846 314.444 91.222 310.93 85.2436 310.494C83.7246 310.382 81.8897 310.637 81.2129 312.004C80.5361 313.371 81.4385 314.985 82.4762 316.112C86.7927 320.775 94.0871 322.404 99.9753 320.016" fill="#518E99"/>
<path d="M87.5606 314.565C87.5606 314.543 87.899 314.558 88.5156 314.603C88.8239 314.625 89.1999 314.648 89.6286 314.73C90.0572 314.813 90.5535 314.858 91.0875 315.001C91.6214 315.128 92.2155 315.263 92.8246 315.481C93.4487 315.661 94.0879 315.932 94.7572 316.217C96.0807 316.818 97.4945 317.606 98.8331 318.628C100.164 319.664 101.285 320.82 102.202 321.954C102.638 322.533 103.059 323.088 103.39 323.652C103.751 324.192 104.022 324.733 104.27 325.221C104.541 325.702 104.699 326.175 104.879 326.573C105.06 326.971 105.165 327.331 105.255 327.624C105.436 328.21 105.526 328.533 105.503 328.54C105.428 328.57 105.06 327.256 104.044 325.334C103.781 324.861 103.503 324.335 103.134 323.809C102.804 323.261 102.382 322.728 101.939 322.165C101.029 321.061 99.9159 319.934 98.6075 318.913C97.2915 317.907 95.9153 317.126 94.6143 316.517C93.9601 316.232 93.3284 315.954 92.7193 315.767C92.1252 315.541 91.5462 315.399 91.0198 315.248C88.9142 314.715 87.5531 314.648 87.5606 314.565Z" fill="#263238"/>
<path d="M428.909 79.2046C426.699 79.7152 425.623 82.2534 425.413 84.5063C425.202 86.7591 425.488 89.1472 424.54 91.2048C423.473 93.5252 420.923 95.2299 420.833 97.7756C420.78 99.3301 421.705 100.794 421.66 102.349C421.585 104.902 418.983 106.832 418.848 109.378C418.75 111.218 419.976 112.975 419.682 114.792C419.457 116.204 418.351 117.315 417.885 118.675C416.96 121.371 418.81 124.344 421.232 125.861C423.924 127.551 427.375 127.994 430.406 127.025C433.437 126.056 435.993 123.706 437.204 120.762C438.543 117.518 438.249 113.869 437.956 110.369C437.046 99.4728 436.377 88.5614 435.933 77.6426" fill="#263238"/>
<path d="M422.487 117.647C422.441 117.601 423.088 117.406 423.494 116.445C423.69 115.972 423.795 115.341 423.75 114.613C423.727 113.877 423.472 113.081 423.201 112.18C422.945 111.286 422.622 110.25 422.81 109.101C422.998 107.929 423.84 106.968 424.6 106.029C424.983 105.549 425.374 105.053 425.615 104.49C425.871 103.934 425.923 103.288 425.735 102.688C425.344 101.463 424.141 100.555 423.592 99.1431C423.321 98.4296 423.314 97.6562 423.472 96.9503C423.622 96.2444 423.908 95.5986 424.201 94.9828C424.788 93.7587 425.442 92.6398 425.698 91.4458C426.224 89.0653 425.976 86.7899 426.337 84.92C426.66 83.0501 427.457 81.6383 428.239 80.9174C428.623 80.542 428.991 80.3467 429.232 80.2115C429.488 80.0989 429.623 80.0538 429.631 80.0613C429.653 80.1064 429.074 80.2791 428.345 81.0226C427.623 81.751 426.893 83.1327 426.608 84.9651C426.457 85.8737 426.435 86.9025 426.397 87.9989C426.359 89.0953 426.322 90.2893 426.044 91.5209C425.78 92.7675 425.119 93.9389 424.547 95.133C423.983 96.312 423.464 97.6937 423.961 98.9853C424.442 100.262 425.653 101.171 426.104 102.552C426.329 103.243 426.254 104.002 425.961 104.617C425.683 105.241 425.277 105.759 424.885 106.24C424.096 107.186 423.314 108.094 423.133 109.146C422.945 110.19 423.239 111.203 423.472 112.089C423.72 112.983 423.968 113.824 423.976 114.59C423.998 115.349 423.87 116.009 423.637 116.49C423.412 116.978 423.096 117.286 422.87 117.436C422.637 117.616 422.487 117.647 422.487 117.647Z" fill="#455A64"/>
<path d="M416.572 135.447L409.782 154.987L381.476 156.504L376.754 166.987L406.307 169.976C412.203 172.409 418.934 169.428 421.084 163.435L428.973 141.447L416.572 135.447Z" fill="#B78876"/>
<path d="M475.124 319.681C475.124 319.681 454.377 253.883 453.94 251.75C453.542 249.82 461.468 202.472 462.468 190.217L434.441 191.261C434.441 191.261 434.441 191.336 434.441 191.463L422.529 192.124L433.2 326.687H446.097L444.819 282.043C452.775 303.37 464.168 325.095 464.168 325.095L475.124 319.681Z" fill="#B78876"/>
<path d="M445.338 298.038C445.353 297.632 445.18 283.079 445.18 283.079C445.022 283.95 440.232 270.448 440.352 269.622C440.412 269.201 445.338 298.038 445.338 298.038Z" fill="#A36957"/>
<path d="M439.809 263.23C439.779 263.23 439.749 263.523 439.726 264.049C439.696 264.575 439.696 265.341 439.741 266.279C439.756 266.752 439.809 267.263 439.869 267.819C439.937 268.367 440.012 268.96 440.14 269.569C440.373 270.8 440.734 272.129 441.192 273.488C442.132 276.207 443.163 278.587 443.9 280.322C444.246 281.111 444.546 281.787 444.795 282.357C445.013 282.838 445.148 283.093 445.178 283.078C445.208 283.071 445.125 282.785 444.952 282.29C444.779 281.794 444.516 281.081 444.178 280.202C443.516 278.445 442.531 276.049 441.599 273.346C441.14 271.994 440.779 270.687 440.523 269.486C440.388 268.885 440.298 268.307 440.215 267.766C440.14 267.226 440.072 266.715 440.034 266.249C439.944 265.318 439.907 264.56 439.884 264.041C439.861 263.523 439.839 263.238 439.809 263.23Z" fill="#A36957"/>
<path d="M432.948 327.348L432.941 326.139L446.153 325.561L446.191 330.547L445.379 330.599C441.754 330.81 426.925 331.425 424.496 330.697C421.788 329.894 432.948 327.348 432.948 327.348Z" fill="#455A64"/>
<path d="M446.371 330.254C446.371 330.261 446.296 330.269 446.145 330.276C445.95 330.291 445.739 330.299 445.498 330.321C444.852 330.351 444.055 330.389 443.107 330.434C441.092 330.516 438.302 330.584 435.219 330.599C432.135 330.614 429.345 330.561 427.33 330.501C426.39 330.464 425.593 330.434 424.939 330.411C424.698 330.396 424.488 330.389 424.292 330.374C424.142 330.366 424.066 330.359 424.066 330.351C424.066 330.344 424.142 330.344 424.292 330.344C424.488 330.344 424.698 330.351 424.939 330.351C425.585 330.359 426.39 330.374 427.33 330.389C429.345 330.419 432.135 330.456 435.219 330.441C438.294 330.426 441.084 330.374 443.107 330.321C444.047 330.299 444.844 330.276 445.498 330.261C445.739 330.254 445.95 330.254 446.145 330.246C446.296 330.246 446.371 330.246 446.371 330.254Z" fill="#263238"/>
<path d="M428.67 330.675C428.625 330.683 428.58 330.112 428.219 329.541C427.865 328.963 427.377 328.67 427.399 328.633C427.407 328.595 427.971 328.835 428.354 329.459C428.738 330.075 428.708 330.69 428.67 330.675Z" fill="#263238"/>
<path d="M432.536 328.702C432.498 328.724 432.31 328.499 432.122 328.199C431.927 327.898 431.807 327.635 431.837 327.613C431.874 327.59 432.062 327.816 432.25 328.116C432.453 328.416 432.574 328.679 432.536 328.702Z" fill="#263238"/>
<path d="M433.602 328.131C433.572 328.161 433.362 328.026 433.136 327.823C432.91 327.62 432.745 327.432 432.775 327.395C432.805 327.365 433.016 327.5 433.241 327.703C433.467 327.913 433.632 328.101 433.602 328.131Z" fill="#263238"/>
<path d="M434.275 326.889C434.275 326.934 433.967 326.972 433.591 326.979C433.215 326.987 432.906 326.957 432.906 326.912C432.906 326.867 433.215 326.829 433.591 326.821C433.967 326.814 434.275 326.844 434.275 326.889Z" fill="#263238"/>
<path d="M434.498 326.018C434.513 326.055 434.182 326.206 433.731 326.243C433.287 326.281 432.934 326.183 432.942 326.138C432.949 326.093 433.295 326.115 433.716 326.085C434.145 326.048 434.483 325.973 434.498 326.018Z" fill="#263238"/>
<path d="M432.092 327.552C432.092 327.567 431.769 327.612 431.25 327.552C430.987 327.522 430.678 327.461 430.347 327.356C430.182 327.296 430.009 327.259 429.829 327.146C429.746 327.093 429.648 327.011 429.618 326.883C429.58 326.756 429.648 326.613 429.746 326.545C430.55 326.125 431.363 326.575 431.663 326.988C431.829 327.199 431.904 327.409 431.942 327.552C431.979 327.694 431.972 327.777 431.964 327.777C431.934 327.784 431.904 327.446 431.573 327.056C431.408 326.868 431.167 326.68 430.851 326.59C430.55 326.5 430.129 326.478 429.844 326.665C429.708 326.763 429.761 326.921 429.911 327.011C430.054 327.101 430.227 327.154 430.385 327.214C430.708 327.319 431.002 327.394 431.257 327.439C431.769 327.529 432.092 327.529 432.092 327.552Z" fill="#263238"/>
<path d="M431.875 327.598C431.859 327.606 431.739 327.395 431.777 327.012C431.799 326.825 431.867 326.607 432.002 326.397C432.153 326.209 432.341 325.954 432.702 325.961C432.897 325.984 432.995 326.209 432.965 326.352C432.95 326.502 432.882 326.629 432.822 326.727C432.694 326.937 432.559 327.11 432.424 327.238C432.16 327.501 431.95 327.598 431.942 327.583C431.927 327.561 432.108 327.433 432.341 327.163C432.454 327.027 432.581 326.862 432.694 326.652C432.807 326.472 432.89 326.156 432.679 326.119C432.469 326.096 432.251 326.307 432.123 326.479C431.987 326.659 431.92 326.862 431.882 327.027C431.822 327.373 431.897 327.591 431.875 327.598Z" fill="#263238"/>
<path d="M446.095 326.657C446.095 326.687 445.719 326.619 445.125 326.694C444.539 326.762 443.719 327.002 443.012 327.573C442.305 328.143 441.884 328.887 441.696 329.443C441.501 330.006 441.478 330.381 441.448 330.381C441.441 330.381 441.433 330.284 441.448 330.118C441.463 329.946 441.501 329.705 441.591 329.413C441.764 328.827 442.178 328.046 442.914 327.453C443.651 326.859 444.509 326.627 445.118 326.581C445.426 326.559 445.674 326.574 445.84 326.596C446.005 326.627 446.095 326.649 446.095 326.657Z" fill="#263238"/>
<path d="M439.768 329.203C439.776 329.241 438.919 329.383 437.851 329.383C436.783 329.391 435.926 329.263 435.926 329.218C435.933 329.173 436.791 329.226 437.843 329.218C438.904 329.226 439.761 329.158 439.768 329.203Z" fill="#263238"/>
<path d="M442.339 329.179C442.369 329.209 442.271 329.359 442.181 329.554C442.091 329.749 442.046 329.922 442.001 329.922C441.956 329.922 441.933 329.712 442.038 329.487C442.136 329.261 442.309 329.141 442.339 329.179Z" fill="#263238"/>
<path d="M443.309 327.971C443.34 328.001 443.257 328.137 443.121 328.279C442.986 328.414 442.851 328.505 442.821 328.475C442.791 328.445 442.873 328.309 443.009 328.167C443.136 328.024 443.272 327.934 443.309 327.971Z" fill="#263238"/>
<path d="M444.695 327.407C444.687 327.452 444.514 327.452 444.319 327.52C444.123 327.587 443.988 327.692 443.95 327.662C443.913 327.64 444.026 327.452 444.266 327.369C444.507 327.287 444.71 327.369 444.695 327.407Z" fill="#263238"/>
<path d="M445.68 327.147C445.695 327.185 445.62 327.252 445.515 327.297C445.409 327.343 445.304 327.343 445.289 327.297C445.274 327.26 445.349 327.192 445.454 327.147C445.567 327.11 445.665 327.11 445.68 327.147Z" fill="#263238"/>
<path d="M463.899 326.187L463.395 325.083L475.209 319.15L477.292 323.686L476.57 324.069C473.352 325.744 460.071 332.367 457.56 332.698C454.762 333.073 463.899 326.187 463.899 326.187Z" fill="#455A64"/>
<path d="M477.346 323.342C477.346 323.349 477.279 323.387 477.151 323.454C476.978 323.545 476.79 323.642 476.579 323.755C476 324.048 475.286 324.408 474.444 324.836C472.639 325.737 470.12 326.939 467.315 328.215C464.51 329.485 461.945 330.581 460.073 331.354C459.201 331.707 458.456 332.008 457.855 332.248C457.629 332.338 457.433 332.413 457.245 332.481C457.103 332.533 457.035 332.556 457.027 332.548C457.027 332.541 457.095 332.511 457.23 332.451C457.411 332.376 457.606 332.286 457.824 332.188C458.419 331.933 459.155 331.617 460.02 331.249C461.878 330.453 464.435 329.342 467.24 328.073C470.044 326.804 472.564 325.61 474.384 324.739C475.233 324.333 475.955 323.988 476.542 323.702C476.76 323.597 476.955 323.507 477.128 323.424C477.271 323.372 477.339 323.342 477.346 323.342Z" fill="#263238"/>
<path d="M461.366 330.978C461.321 331 461.057 330.497 460.486 330.121C459.929 329.738 459.358 329.671 459.365 329.626C459.358 329.588 459.974 329.581 460.576 329.994C461.178 330.392 461.403 330.963 461.366 330.978Z" fill="#263238"/>
<path d="M464.083 327.582C464.06 327.619 463.797 327.491 463.496 327.296C463.195 327.101 462.977 326.913 463 326.876C463.022 326.838 463.285 326.966 463.586 327.161C463.887 327.356 464.105 327.544 464.083 327.582Z" fill="#263238"/>
<path d="M464.819 326.637C464.804 326.682 464.555 326.637 464.27 326.547C463.976 326.457 463.758 326.344 463.766 326.307C463.781 326.262 464.021 326.307 464.315 326.397C464.608 326.487 464.834 326.592 464.819 326.637Z" fill="#263238"/>
<path d="M464.927 325.225C464.942 325.262 464.679 325.428 464.34 325.585C463.994 325.743 463.701 325.841 463.686 325.803C463.671 325.766 463.934 325.6 464.273 325.443C464.611 325.285 464.904 325.187 464.927 325.225Z" fill="#263238"/>
<path d="M464.776 324.336C464.806 324.366 464.565 324.644 464.174 324.855C463.783 325.072 463.422 325.125 463.415 325.087C463.4 325.042 463.73 324.922 464.099 324.719C464.467 324.509 464.746 324.299 464.776 324.336Z" fill="#263238"/>
<path d="M463.203 326.727C463.21 326.742 462.932 326.915 462.428 327.073C462.18 327.148 461.872 327.223 461.526 327.261C461.353 327.276 461.18 327.306 460.969 327.283C460.872 327.268 460.751 327.231 460.669 327.133C460.586 327.035 460.586 326.878 460.646 326.772C461.21 326.059 462.135 326.142 462.579 326.397C462.819 326.525 462.97 326.682 463.06 326.795C463.15 326.915 463.18 326.99 463.173 326.99C463.15 327.013 462.985 326.712 462.526 326.495C462.301 326.389 462 326.322 461.676 326.367C461.368 326.412 460.97 326.562 460.789 326.848C460.706 326.99 460.819 327.118 460.992 327.133C461.158 327.155 461.346 327.133 461.511 327.125C461.849 327.095 462.15 327.035 462.398 326.975C462.902 326.833 463.195 326.705 463.203 326.727Z" fill="#263238"/>
<path d="M463.025 326.854C463.017 326.869 462.814 326.719 462.694 326.359C462.634 326.178 462.604 325.953 462.649 325.705C462.709 325.473 462.777 325.157 463.115 325.022C463.303 324.962 463.747 325.345 463.777 325.488C463.822 325.63 463.551 325.555 463.544 325.675C463.513 325.916 463.461 326.133 463.393 326.306C463.258 326.652 463.107 326.824 463.092 326.817C463.07 326.802 463.183 326.606 463.288 326.269C463.341 326.096 463.386 325.893 463.401 325.66C463.431 325.45 463.371 325.127 463.16 325.18C462.957 325.247 462.852 325.525 462.799 325.735C462.754 325.953 462.769 326.163 462.807 326.336C462.889 326.667 463.047 326.839 463.025 326.854Z" fill="#263238"/>
<path d="M475.617 320.178C475.625 320.208 475.256 320.298 474.745 320.606C474.234 320.906 473.587 321.462 473.173 322.273C472.76 323.084 472.684 323.932 472.737 324.518C472.79 325.111 472.925 325.464 472.895 325.472C472.887 325.472 472.842 325.389 472.782 325.232C472.722 325.074 472.662 324.834 472.617 324.526C472.534 323.925 472.587 323.039 473.023 322.19C473.452 321.349 474.143 320.778 474.677 320.501C474.948 320.358 475.181 320.268 475.347 320.223C475.519 320.185 475.61 320.17 475.617 320.178Z" fill="#263238"/>
<path d="M470.888 325.09C470.91 325.128 470.181 325.601 469.211 326.044C468.241 326.487 467.406 326.72 467.391 326.682C467.376 326.637 468.18 326.337 469.143 325.901C470.106 325.466 470.865 325.053 470.888 325.09Z" fill="#263238"/>
<path d="M473.227 324.012C473.272 324.027 473.234 324.207 473.242 324.425C473.242 324.642 473.272 324.815 473.227 324.838C473.189 324.853 473.076 324.68 473.076 324.425C473.076 324.169 473.189 323.989 473.227 324.012Z" fill="#263238"/>
<path d="M473.61 322.515C473.648 322.53 473.633 322.688 473.565 322.868C473.498 323.048 473.407 323.183 473.37 323.168C473.332 323.153 473.347 322.995 473.415 322.815C473.483 322.635 473.565 322.5 473.61 322.515Z" fill="#263238"/>
<path d="M474.648 321.441C474.656 321.486 474.498 321.554 474.348 321.697C474.197 321.832 474.115 321.99 474.069 321.975C474.024 321.967 474.054 321.749 474.235 321.577C474.423 321.404 474.641 321.396 474.648 321.441Z" fill="#263238"/>
<path d="M475.44 320.793C475.47 320.823 475.433 320.914 475.35 321.004C475.267 321.086 475.177 321.131 475.147 321.101C475.117 321.071 475.155 320.981 475.237 320.891C475.32 320.801 475.41 320.763 475.44 320.793Z" fill="#263238"/>
<path d="M460.65 167.946L458.447 141.137L469.749 141.34C469.749 141.34 470.276 137.39 468.606 128.717C467.584 123.4 464.042 120.141 460.064 118.203V118.136L459.718 118.046C454.657 115.68 449.363 115.35 449.363 115.35L435.488 115.507C435.488 115.507 424.893 114.186 419.027 121.733C416.771 124.639 409.777 144.532 409.777 144.532L426.427 152.537L424.84 141.505C424.84 141.505 425.156 149.503 426.178 152.034C426.75 153.445 428.397 157.831 428.397 157.831L428.179 171.055L460.65 167.946Z" fill="#518E99"/>
<path d="M453.002 137.245L450.941 146.001H470.366L469.087 131.312L453.002 137.245Z" fill="#518E99"/>
<path d="M470.363 146.001C470.363 145.941 469.385 145.843 467.791 145.745C466.197 145.655 463.993 145.573 461.564 145.588C459.128 145.603 456.925 145.708 455.338 145.828C453.744 145.956 452.766 146.091 452.773 146.143C452.781 146.203 453.766 146.181 455.353 146.128C456.947 146.083 459.143 146.023 461.564 146.008C463.993 146.001 466.189 146.031 467.783 146.046C469.37 146.068 470.363 146.061 470.363 146.001Z" fill="#263238"/>
<path d="M452.158 131.244C452.098 131.244 452.075 132.1 452.09 133.474C452.105 134.849 452.158 136.749 452.233 138.844C452.316 140.939 452.414 142.839 452.504 144.206C452.594 145.58 452.685 146.421 452.745 146.421C452.805 146.421 452.827 145.565 452.812 144.191C452.797 142.816 452.745 140.916 452.67 138.821C452.587 136.726 452.489 134.834 452.399 133.459C452.309 132.085 452.218 131.244 452.158 131.244Z" fill="#263238"/>
<g opacity="0.3">
<path d="M434.484 138.83C434.484 138.83 438.801 170.798 450.938 169.95C450.938 169.95 456.405 169.882 458.157 166.255V164.828L434.484 138.83Z" fill="black"/>
</g>
<g opacity="0.3">
<path d="M452.158 133.129L449.834 148.801L451.338 151.55L453.82 146.173L452.767 146.143L452.158 133.129Z" fill="black"/>
</g>
<path d="M428.409 157.819C428.387 157.827 428.266 157.564 428.078 157.068C427.89 156.58 427.642 155.859 427.349 154.973C426.77 153.186 426.056 150.693 425.492 147.877C424.935 145.061 424.657 142.477 424.574 140.6C424.529 139.661 424.514 138.903 424.529 138.377C424.537 137.851 424.559 137.559 424.582 137.559C424.642 137.559 424.687 138.715 424.845 140.577C425.003 142.44 425.319 145.001 425.875 147.802C426.432 150.595 427.101 153.088 427.612 154.891C427.853 155.724 428.056 156.438 428.221 157.023C428.364 157.526 428.432 157.812 428.409 157.819Z" fill="#263238"/>
<path d="M433.308 167.003C433.203 167.033 432.902 166.342 432.639 165.464C432.368 164.585 432.24 163.842 432.345 163.811C432.451 163.781 432.751 164.472 433.015 165.351C433.278 166.237 433.413 166.973 433.308 167.003Z" fill="#263238"/>
<path d="M434.99 166.886C434.892 166.908 434.561 165.879 434.546 164.55C434.524 163.221 434.817 162.177 434.922 162.2C435.035 162.222 434.915 163.258 434.937 164.543C434.952 165.827 435.103 166.863 434.99 166.886Z" fill="#263238"/>
<path d="M426.777 152.895C426.732 152.993 422.852 151.153 418.122 148.795C413.392 146.437 409.594 144.439 409.639 144.342C409.684 144.244 413.565 146.084 418.295 148.442C423.025 150.8 426.822 152.797 426.777 152.895Z" fill="#263238"/>
<path d="M433.597 118.092C433.688 114.292 433.703 110.289 433.703 110.289C433.703 110.289 428.822 109.351 427.972 102.938C427.16 96.8247 429.431 82.474 429.431 82.474C436.56 79.7856 443.967 82.2187 448.848 87.986L447.637 118.828C447.494 122.41 444.298 125.143 440.463 124.963C436.583 124.79 433.515 121.711 433.597 118.092Z" fill="#B78876"/>
<path d="M429.057 93.943C429.026 94.3785 429.372 94.754 429.824 94.7916C430.275 94.8291 430.658 94.5062 430.688 94.0782C430.718 93.6426 430.373 93.2671 429.921 93.2296C429.478 93.192 429.087 93.5074 429.057 93.943Z" fill="#263238"/>
<path d="M428.754 92.8715C428.852 92.9841 429.483 92.5411 430.371 92.5636C431.251 92.5786 431.89 93.0442 431.987 92.9391C432.033 92.894 431.935 92.6988 431.664 92.4885C431.393 92.2782 430.927 92.068 430.371 92.053C429.822 92.0454 429.355 92.2332 429.085 92.4284C428.799 92.6312 428.701 92.8189 428.754 92.8715Z" fill="#263238"/>
<path d="M438.014 94.5035C437.983 94.939 438.329 95.3145 438.781 95.3521C439.232 95.3896 439.615 95.0667 439.645 94.6387C439.675 94.2031 439.33 93.8276 438.878 93.7901C438.427 93.7525 438.044 94.0754 438.014 94.5035Z" fill="#263238"/>
<path d="M437.958 93.4317C438.056 93.5444 438.687 93.1013 439.575 93.1238C440.454 93.1389 441.094 93.6045 441.191 93.4993C441.237 93.4543 441.139 93.259 440.861 93.0412C440.59 92.831 440.124 92.6207 439.567 92.6057C439.018 92.5982 438.552 92.7859 438.281 92.9812C438.01 93.1914 437.913 93.3792 437.958 93.4317Z" fill="#263238"/>
<path d="M434.585 99.8767C434.593 99.8241 434.044 99.719 433.157 99.5838C432.931 99.5538 432.72 99.5012 432.683 99.3511C432.63 99.1858 432.735 98.9455 432.848 98.6902C433.074 98.1495 433.307 97.5863 433.555 96.9931C434.54 94.575 435.262 92.5925 435.164 92.5474C435.067 92.5099 434.187 94.4323 433.194 96.8504C432.953 97.4436 432.728 98.0144 432.51 98.555C432.42 98.8104 432.262 99.0957 432.367 99.4337C432.42 99.6064 432.585 99.7265 432.728 99.7716C432.871 99.8166 432.999 99.8242 433.111 99.8317C434.021 99.9068 434.578 99.9293 434.585 99.8767Z" fill="#263238"/>
<path d="M433.705 110.292C433.705 110.292 437.999 110.682 442.331 108.234C442.331 108.234 440.142 112.567 433.758 111.801L433.705 110.292Z" fill="#A36957"/>
<path d="M440.782 90.8788C440.601 91.1567 439.932 91.029 439.18 90.8938C438.428 90.7437 437.759 90.6085 437.698 90.2856C437.623 89.9777 438.398 89.5496 439.405 89.7374C440.398 89.9401 440.962 90.6235 440.782 90.8788Z" fill="#263238"/>
<path d="M432.009 89.5887C431.941 89.9116 431.219 90.0242 430.392 90.0693C429.565 90.0993 428.835 90.0543 428.738 89.7389C428.64 89.4385 429.339 88.9429 430.339 88.8978C431.34 88.8528 432.076 89.2808 432.009 89.5887Z" fill="#263238"/>
<path d="M434.605 101.986C434.417 101.933 434.206 102.038 434.116 102.211C434.003 102.414 434.056 102.684 434.229 102.834C434.402 102.985 434.688 102.985 434.868 102.842C435.049 102.699 435.109 102.421 435.004 102.219C434.898 102.016 434.643 101.903 434.417 101.971" fill="#A36957"/>
<path d="M434.807 102.074C434.844 102.036 434.664 101.818 434.28 101.908C434.1 101.946 433.867 102.104 433.799 102.381C433.731 102.637 433.791 102.967 434.062 103.177C434.348 103.373 434.686 103.335 434.904 103.185C435.145 103.027 435.213 102.742 435.175 102.562C435.1 102.164 434.807 102.104 434.799 102.156C434.769 102.209 434.904 102.344 434.874 102.577C434.859 102.689 434.807 102.795 434.694 102.855C434.581 102.915 434.408 102.915 434.31 102.84C434.205 102.764 434.152 102.599 434.175 102.479C434.19 102.351 434.273 102.261 434.378 102.201C434.596 102.066 434.784 102.126 434.807 102.074Z" fill="#263238"/>
<path d="M445.896 95.5275C445.137 97.2847 443.279 98.644 443.535 100.544C443.701 101.768 444.49 102.917 444.34 104.141C444.144 105.68 442.542 106.754 442.317 108.294C442.039 110.179 443.873 111.643 444.61 113.408C445.678 115.968 444.31 118.852 444.28 121.631C444.227 125.881 447.852 129.854 452.093 130.207C453.807 130.349 455.74 129.831 456.635 128.359C457.372 127.143 457.221 125.603 457.665 124.251C458.319 122.239 460.237 120.775 460.643 118.694C461.38 114.91 456.8 111.786 457.101 107.941C457.229 106.296 458.244 104.869 458.673 103.277C459.237 101.197 458.718 98.8542 457.327 97.2021C456.199 95.8579 454.559 94.9793 453.597 93.515C452.506 91.8554 452.469 89.7452 452.055 87.8002C451.055 83.0617 447.491 78.9465 442.941 77.2719C438.391 75.5972 433 76.4158 429.157 79.367C429.157 79.367 428.066 84.3158 433.15 85.1418C438.241 85.9679 440.595 85.0142 441.166 87.0493C441.166 87.0493 440.587 89.4298 442.693 91.6977C444.798 93.9655 446.776 93.4849 445.896 95.5275Z" fill="#263238"/>
<path d="M454.016 129.854C454.016 129.869 453.858 129.854 453.549 129.809C453.249 129.763 452.805 129.658 452.256 129.463C451.173 129.065 449.631 128.201 448.323 126.549C447.669 125.731 447.06 124.74 446.646 123.576C446.225 122.419 445.984 121.105 445.962 119.723C445.932 118.341 446.127 116.885 446.503 115.435C446.691 114.707 446.939 113.986 447.225 113.265C447.503 112.544 447.849 111.846 448.052 111.11C448.263 110.374 448.24 109.623 448.045 108.91C447.849 108.196 447.511 107.52 447.187 106.852C446.856 106.184 446.526 105.523 446.308 104.817C446.089 104.118 446.007 103.36 446.15 102.662C446.45 101.25 447.308 100.198 447.819 99.1246C448.353 98.0583 448.526 96.9393 448.503 95.9255C448.413 93.883 447.541 92.366 446.826 91.4949C446.082 90.6238 445.518 90.2859 445.548 90.2559C445.548 90.2559 446.142 90.5337 446.939 91.3973C447.706 92.2609 448.646 93.7928 448.774 95.9105C448.819 96.9544 448.661 98.1409 448.112 99.2598C447.593 100.371 446.766 101.43 446.503 102.722C446.24 104.028 446.857 105.373 447.526 106.679C447.857 107.348 448.203 108.038 448.413 108.804C448.624 109.563 448.654 110.426 448.421 111.207C448.21 111.996 447.857 112.702 447.578 113.408C447.3 114.114 447.052 114.827 446.864 115.533C446.488 116.952 446.293 118.372 446.315 119.716C446.323 122.419 447.255 124.792 448.526 126.377C449.774 128.006 451.248 128.885 452.301 129.313C453.376 129.741 454.023 129.809 454.016 129.854Z" fill="#455A64"/>
<path d="M453.27 91.9612C453.27 91.9837 452.879 92.0588 452.149 92.1264C451.427 92.1865 450.36 92.2691 449.051 92.0438C447.78 91.811 446.163 91.1877 445.141 89.6783C444.637 88.9198 444.441 88.0037 444.118 87.1551C443.81 86.299 443.216 85.5556 442.403 85.0449C440.757 84.0011 438.824 83.8734 437.132 83.6707C435.432 83.4754 433.831 83.115 432.748 82.3039C431.657 81.5304 431.101 80.5242 430.951 79.7957C430.868 79.4353 430.875 79.1424 430.89 78.9472C430.92 78.7519 430.935 78.6543 430.951 78.6543C430.996 78.6543 430.898 79.0673 431.093 79.7507C431.274 80.4265 431.838 81.3577 432.898 82.0711C433.943 82.8071 435.47 83.13 437.162 83.3027C438.839 83.4904 440.847 83.5956 442.607 84.707C443.479 85.2477 444.148 86.0962 444.464 87.0049C444.802 87.8985 444.983 88.7771 445.434 89.468C446.351 90.8648 447.871 91.5031 449.089 91.7584C450.345 92.0137 451.405 91.9762 452.127 91.9612C452.864 91.9537 453.27 91.9311 453.27 91.9612Z" fill="#455A64"/>
<path d="M451.401 85.8504C451.409 85.8729 451.1 85.963 450.521 85.978C449.95 85.993 449.092 85.8954 448.145 85.4448C447.671 85.2196 447.19 84.9042 446.746 84.4761C446.295 84.0481 445.927 83.4999 445.581 82.9216C444.904 81.7802 444.25 80.3684 442.843 79.7902C441.467 79.1969 439.948 79.3321 438.632 79.4222C437.301 79.5499 436.053 79.5949 435.038 79.3922C434.015 79.2119 433.248 78.7914 432.819 78.4009C432.601 78.2057 432.458 78.0329 432.375 77.9053C432.293 77.7776 432.255 77.71 432.263 77.7025C432.293 77.68 432.473 77.9428 432.917 78.2808C433.353 78.6187 434.098 78.9791 435.083 79.1218C436.075 79.2795 437.263 79.2194 438.602 79.0693C439.926 78.9641 441.49 78.7989 443.001 79.4372C443.753 79.7526 444.362 80.3158 444.798 80.9241C445.242 81.5324 445.558 82.1707 445.896 82.7414C446.227 83.3196 446.566 83.8453 446.979 84.2508C447.385 84.6639 447.829 84.9792 448.273 85.2045C449.153 85.6626 449.972 85.8053 450.529 85.8353C451.085 85.8579 451.394 85.8128 451.401 85.8504Z" fill="#455A64"/>
<path d="M456.258 128.231C456.221 128.216 456.461 127.728 456.74 126.805C457.018 125.881 457.289 124.499 457.243 122.779C457.183 121.075 456.777 119.01 455.642 117.042C455.093 116.058 454.258 115.18 453.574 114.106C453.235 113.565 452.942 112.965 452.814 112.296C452.686 111.628 452.762 110.914 452.98 110.269C453.401 108.969 454.16 107.881 454.318 106.687C454.521 105.493 453.912 104.404 453.341 103.427C453.047 102.932 452.762 102.444 452.536 101.933C452.31 101.422 452.167 100.882 452.107 100.364C451.994 99.3197 452.115 98.3585 452.19 97.5024C452.408 95.7902 452.25 94.3785 451.837 93.5149C451.438 92.6362 450.912 92.3734 450.949 92.3359C450.957 92.3284 450.987 92.3434 451.039 92.3809C451.092 92.4185 451.182 92.4635 451.28 92.5536C451.483 92.7188 451.746 93.0042 451.972 93.4473C452.446 94.3259 452.649 95.7978 452.468 97.5249C452.408 98.3885 452.303 99.3347 452.431 100.326C452.528 101.325 453.047 102.263 453.649 103.24C453.942 103.735 454.25 104.253 454.469 104.839C454.694 105.417 454.792 106.086 454.694 106.732C454.514 108.046 453.739 109.157 453.348 110.374C453.145 110.982 453.085 111.613 453.19 112.214C453.303 112.814 453.566 113.378 453.89 113.896C454.536 114.932 455.378 115.826 455.942 116.854C457.101 118.89 457.484 121.015 457.514 122.764C457.529 124.522 457.206 125.926 456.882 126.842C456.717 127.3 456.574 127.653 456.446 127.878C456.333 128.119 456.273 128.239 456.258 128.231Z" fill="#455A64"/>
<path d="M425.631 268.159C425.631 268.159 420.57 220.218 420.277 202.503C419.984 184.788 428.256 167.306 428.256 167.306L460.652 165.939C460.652 165.939 467.059 183.917 467.172 191.464C467.397 206.138 463.269 220.624 463.743 232.264L464.826 268.159" fill="#263238"/>
<path d="M465.912 209.217C465.919 209.232 465.731 209.367 465.385 209.615C465.295 209.683 465.197 209.75 465.092 209.825C464.994 209.908 464.889 210.021 464.776 210.126C464.551 210.344 464.28 210.591 464.054 210.929C463.009 212.206 462.242 214.496 461.52 217.35C461.121 218.769 460.715 220.354 459.881 221.908C459.655 222.291 459.452 222.689 459.159 223.042C459.016 223.222 458.888 223.418 458.738 223.59L458.241 224.086C457.565 224.754 456.707 225.25 455.805 225.648C453.993 226.444 451.947 226.819 450.075 227.758C448.195 228.674 446.781 230.447 445.916 232.489C445.006 234.524 444.45 236.657 443.69 238.654C442.946 240.637 441.923 242.559 440.306 243.776C438.704 245.038 436.719 245.323 435.005 245.436C433.26 245.541 431.643 245.488 430.199 245.706C428.755 245.909 427.477 246.359 426.575 247.073C425.665 247.786 425.138 248.68 424.89 249.446C424.634 250.219 424.68 250.872 424.762 251.286C424.845 251.706 424.965 251.909 424.935 251.916C424.935 251.916 424.792 251.729 424.68 251.301C424.567 250.88 424.492 250.204 424.74 249.393C424.973 248.59 425.499 247.658 426.432 246.9C427.364 246.141 428.68 245.653 430.154 245.428C431.628 245.188 433.26 245.225 434.982 245.105C436.681 244.985 438.577 244.685 440.088 243.483C441.615 242.327 442.6 240.472 443.329 238.512C444.074 236.537 444.63 234.404 445.555 232.324C446.427 230.244 447.924 228.359 449.894 227.413C451.842 226.451 453.887 226.084 455.654 225.318C456.534 224.935 457.354 224.461 458.001 223.838L458.482 223.365C458.632 223.2 458.753 223.012 458.888 222.847C459.174 222.509 459.369 222.119 459.587 221.758C460.415 220.256 460.828 218.687 461.249 217.275C462.009 214.436 462.821 212.116 463.934 210.839C464.175 210.501 464.46 210.253 464.693 210.043C464.814 209.938 464.919 209.833 465.024 209.75C465.137 209.683 465.242 209.615 465.333 209.555C465.709 209.322 465.904 209.21 465.912 209.217Z" fill="#FAFAFA"/>
<path d="M466.106 187.035C466.121 187.035 466.136 187.253 466.151 187.681C466.158 188.102 466.106 188.732 465.925 189.513C465.549 191.075 464.406 193.223 462.263 195.168C461.203 196.144 459.932 197.083 458.465 197.939C457.014 198.803 455.412 199.621 453.773 200.545C452.141 201.476 450.449 202.52 448.968 203.917C447.464 205.291 446.343 207.101 445.328 209.023C444.305 210.938 443.403 212.883 442.177 214.573C441.568 215.414 440.884 216.187 440.124 216.841C439.357 217.494 438.522 218.027 437.68 218.47C435.981 219.349 434.251 219.897 432.649 220.4C431.04 220.896 429.544 221.339 428.228 221.887C426.912 222.428 425.776 223.043 424.859 223.689C423.941 224.343 423.242 225.018 422.745 225.634C421.745 226.873 421.535 227.767 421.475 227.744C421.46 227.737 421.535 227.534 421.685 227.136C421.858 226.753 422.129 226.182 422.625 225.544C423.114 224.906 423.806 224.192 424.731 223.509C425.656 222.833 426.799 222.195 428.122 221.632C429.446 221.061 430.95 220.603 432.552 220.092C434.146 219.581 435.86 219.026 437.515 218.155C438.342 217.719 439.147 217.201 439.884 216.563C440.613 215.924 441.282 215.173 441.869 214.355C443.065 212.703 443.959 210.773 444.99 208.843C446.005 206.92 447.163 205.058 448.712 203.646C450.231 202.219 451.953 201.168 453.6 200.237C455.254 199.313 456.856 198.51 458.308 197.669C459.759 196.843 461.022 195.926 462.083 194.98C464.211 193.095 465.369 191.015 465.782 189.491C466.181 187.936 466.046 187.028 466.106 187.035Z" fill="#FAFAFA"/>
<path d="M420.438 205.039C420.43 205.039 420.408 204.994 420.37 204.897C420.34 204.799 420.273 204.649 420.227 204.446C420.137 204.048 420.077 203.41 420.303 202.644C420.724 201.112 422.386 199.212 425.063 198.258C426.394 197.8 427.913 197.522 429.485 197.109C431.041 196.689 432.741 196.103 434.012 194.804C434.643 194.158 435.177 193.399 435.613 192.558C436.042 191.71 436.403 190.801 436.734 189.862C437.411 187.993 437.975 185.958 439.118 184.103C440.253 182.24 442.103 180.941 444.021 180.295C445.931 179.597 447.863 179.282 449.646 178.869C451.443 178.478 453.12 177.975 454.541 177.201C455.947 176.405 457.06 175.347 457.85 174.22C459.474 171.967 459.895 169.662 459.956 168.137C459.993 166.59 459.745 165.742 459.798 165.734C459.798 165.734 460.098 166.56 460.113 168.137C460.098 169.684 459.715 172.05 458.083 174.378C457.286 175.542 456.15 176.646 454.707 177.479C453.248 178.283 451.533 178.808 449.736 179.214C447.939 179.635 446.021 179.957 444.164 180.648C442.291 181.294 440.554 182.518 439.456 184.305C438.351 186.085 437.787 188.098 437.102 189.983C436.764 190.929 436.395 191.853 435.952 192.724C435.493 193.587 434.937 194.383 434.267 195.052C432.921 196.418 431.146 197.004 429.567 197.417C427.965 197.823 426.461 198.078 425.153 198.513C422.544 199.4 420.889 201.224 420.445 202.681C420.205 203.41 420.235 204.025 420.303 204.423C420.393 204.821 420.461 205.032 420.438 205.039Z" fill="#FAFAFA"/>
<path d="M463.326 245.576C463.341 245.576 463.356 245.734 463.379 246.049C463.394 246.357 463.371 246.823 463.243 247.408C462.98 248.565 462.085 250.149 460.401 251.464C459.574 252.132 458.573 252.74 457.415 253.228C456.265 253.717 454.994 254.107 453.67 254.52C452.347 254.933 450.956 255.369 449.602 255.999C448.241 256.623 446.985 257.531 445.902 258.695C444.804 259.844 443.857 261.098 442.812 262.202C441.766 263.314 440.578 264.23 439.345 264.913C436.871 266.28 434.306 266.746 432.193 266.768C430.065 266.791 428.381 266.348 427.268 265.95C426.711 265.754 426.29 265.559 426.019 265.416C425.741 265.281 425.598 265.199 425.606 265.191C425.613 265.176 425.764 265.236 426.049 265.349C426.335 265.469 426.756 265.642 427.313 265.814C428.426 266.16 430.095 266.558 432.178 266.498C434.254 266.438 436.758 265.95 439.157 264.605C440.352 263.937 441.496 263.043 442.518 261.947C443.548 260.858 444.488 259.604 445.609 258.433C446.707 257.246 448.038 256.292 449.429 255.661C450.82 255.016 452.227 254.588 453.558 254.182C454.889 253.777 456.152 253.401 457.28 252.936C458.408 252.47 459.401 251.884 460.213 251.246C461.875 249.984 462.777 248.482 463.078 247.363C463.386 246.237 463.266 245.576 463.326 245.576Z" fill="#FAFAFA"/>
<path d="M459.629 146.029L453.365 146.179C452.951 148.289 451.951 149.731 451.951 149.731C446.71 140.652 442.649 128.486 441.641 123.598C441.791 123.11 441.964 122.569 442.183 121.968C442.431 121.27 442.22 119.948 442.1 119.22C441.927 118.131 441.619 116.666 441.528 115.991C441.25 113.925 440.919 113.602 440.197 113.835C439.212 114.151 440.603 119.64 439.799 119.753C439.37 119.82 438.836 117.935 438.686 116.396C438.535 114.857 437.836 110.111 437.325 109.795C436.58 109.33 435.926 110.066 436.114 111.597C436.302 113.152 436.543 117.785 435.73 117.845C434.926 117.905 434.249 110.043 434.249 110.043C434.249 110.043 434.377 108.331 433.429 108.376C431.722 108.451 433.053 116.741 433.204 117.522C433.309 118.071 432.422 118.168 432.346 117.575C432.264 116.967 431.858 109.713 430.12 109.773C428.789 109.818 431.151 116.606 430.406 118.176C429.662 119.745 429.143 112.837 427.864 112.927C427.391 112.964 427.045 113.054 427.91 116.967C428.376 119.069 429.752 122.937 430.948 126.136C432.963 136.987 441.807 171.704 455.666 165.343C463.419 161.791 466.57 146.029 466.57 146.029H459.629Z" fill="#B78876"/>
<path d="M432.894 118.05C432.894 118.05 432.954 118.058 433.074 118.028C433.18 117.998 433.39 117.862 433.36 117.592C433.345 117.127 433.27 116.451 433.165 115.572C433.082 114.686 432.819 113.627 432.819 112.373C432.811 111.742 432.826 111.066 432.864 110.353C432.886 109.992 432.894 109.625 432.977 109.272C433.037 108.934 433.262 108.543 433.526 108.588L433.556 108.596H433.571C433.841 108.581 434.044 108.791 434.135 109.106C434.232 109.407 434.255 109.767 434.232 110.113V110.128V110.135C434.405 112.058 434.601 114.16 435.037 116.406C435.097 116.683 435.157 116.969 435.248 117.254C435.293 117.397 435.338 117.54 435.406 117.682C435.443 117.757 435.473 117.825 435.533 117.908C435.586 117.975 435.654 118.088 435.849 118.103C436.165 118.08 436.255 117.84 436.323 117.705C436.391 117.547 436.436 117.397 436.466 117.247C436.534 116.939 436.564 116.638 436.586 116.331C436.669 115.106 436.624 113.852 436.534 112.576C436.503 111.93 436.346 111.284 436.458 110.698C436.511 110.413 436.631 110.12 436.827 110C436.925 109.94 437.03 109.932 437.15 109.962C437.21 109.977 437.271 110.008 437.331 110.038C437.383 110.083 437.368 110.06 437.413 110.15C437.662 110.691 437.797 111.389 437.932 112.035C438.068 112.703 438.18 113.379 438.286 114.063C438.391 114.746 438.489 115.437 438.572 116.135C438.639 116.834 438.737 117.562 438.917 118.268C439.008 118.621 439.105 118.974 439.256 119.327C439.331 119.5 439.414 119.68 439.564 119.86C439.617 119.935 439.797 120.078 440.015 120.025C440.226 119.958 440.286 119.785 440.324 119.687C440.444 119.252 440.406 118.899 440.406 118.516C440.391 118.14 440.361 117.772 440.331 117.404C440.279 116.774 440.218 116.143 440.196 115.527C440.188 115.219 440.188 114.911 440.218 114.626C440.233 114.483 440.263 114.34 440.309 114.235C440.331 114.183 440.361 114.145 440.384 114.123C440.399 114.108 440.406 114.115 440.414 114.1L440.512 114.07C441.008 113.867 441.173 114.558 441.309 115.114C441.422 115.7 441.497 116.3 441.617 116.894C441.813 118.08 442.068 119.252 442.204 120.378C442.256 120.941 442.301 121.52 442.136 121.993C441.955 122.533 441.783 123.074 441.61 123.607L441.595 123.652L441.61 123.705C442.527 127.745 443.798 131.357 444.971 134.564C446.159 137.77 447.355 140.534 448.4 142.802C449.445 145.069 450.385 146.812 451.04 148.006C451.371 148.569 451.626 149.019 451.822 149.35C452.002 149.65 452.1 149.808 452.115 149.8C452.123 149.793 452.047 149.628 451.882 149.312C451.701 148.974 451.461 148.516 451.16 147.938C450.551 146.729 449.648 144.972 448.633 142.696C447.618 140.421 446.46 137.65 445.294 134.444C444.144 131.237 442.896 127.617 442.008 123.622L442.001 123.72C442.174 123.194 442.347 122.669 442.527 122.128C442.73 121.512 442.67 120.919 442.617 120.333C442.482 119.162 442.234 118.02 442.038 116.826C441.925 116.24 441.85 115.632 441.73 115.024C441.662 114.716 441.595 114.408 441.422 114.093C441.339 113.942 441.211 113.77 441.008 113.672C440.797 113.582 440.587 113.605 440.414 113.65L440.286 113.687C440.226 113.71 440.158 113.74 440.113 113.785C440.015 113.867 439.963 113.965 439.925 114.055C439.842 114.235 439.82 114.401 439.797 114.566C439.76 114.896 439.76 115.219 439.775 115.535C439.797 116.173 439.857 116.804 439.91 117.434C439.94 117.802 439.97 118.163 439.985 118.523C440 118.876 440.008 119.259 439.933 119.53C439.91 119.605 439.88 119.597 439.918 119.635C439.918 119.612 439.925 119.672 439.925 119.665V119.657C439.925 119.65 439.925 119.635 439.925 119.635C439.933 119.627 439.948 119.605 439.933 119.597C439.925 119.597 439.91 119.582 439.888 119.552C439.805 119.454 439.722 119.304 439.654 119.147C439.519 118.831 439.421 118.493 439.339 118.148C439.166 117.457 439.068 116.774 439 116.068C438.917 115.362 438.82 114.663 438.707 113.973C438.602 113.282 438.481 112.598 438.346 111.93C438.188 111.254 438.09 110.601 437.774 109.925C437.752 109.857 437.624 109.707 437.541 109.662C437.459 109.609 437.361 109.572 437.263 109.542C437.06 109.489 436.812 109.512 436.624 109.632C436.248 109.88 436.135 110.27 436.067 110.608C436.007 110.961 436.015 111.307 436.052 111.637C436.09 111.96 436.12 112.275 436.143 112.591C436.24 113.852 436.285 115.099 436.21 116.293C436.188 116.586 436.158 116.886 436.105 117.164C436.075 117.307 436.037 117.434 435.992 117.555C435.97 117.615 435.939 117.667 435.909 117.697C435.879 117.757 435.857 117.682 435.864 117.787C435.902 117.712 435.864 117.75 435.834 117.69C435.804 117.652 435.774 117.585 435.744 117.532C435.691 117.412 435.646 117.277 435.601 117.149C435.518 116.886 435.451 116.608 435.391 116.331C434.947 114.123 434.736 112.013 434.541 110.113V110.135C434.556 109.752 434.533 109.384 434.42 109.016C434.36 108.836 434.278 108.656 434.127 108.513C433.977 108.37 433.766 108.303 433.571 108.31L433.616 108.318C433.315 108.265 433.089 108.446 432.969 108.626C432.841 108.813 432.781 109.016 432.736 109.211C432.653 109.609 432.653 109.977 432.638 110.338C432.608 111.059 432.608 111.742 432.623 112.373C432.646 113.657 432.939 114.716 433.037 115.587C433.165 116.458 433.262 117.134 433.308 117.592C433.353 117.81 433.18 117.953 433.089 117.983C432.954 118.035 432.886 118.043 432.894 118.05Z" fill="#A36957"/>
<path d="M383.92 156.371C383.92 156.371 381.837 156.274 379.566 156.867C375.685 157.888 368.977 161.943 368.699 166.96H373.565C373.565 166.96 370.835 172.757 371.64 172.216C373.715 170.827 377.859 166.622 377.859 166.622L383.92 156.371Z" fill="#B78876"/>
<path d="M450.343 69.1139C450.238 69.1214 449.794 65.1038 449.358 60.1325C448.922 55.1612 448.651 51.1286 448.764 51.1211C448.869 51.1136 449.313 55.1312 449.749 60.1025C450.185 65.0738 450.448 69.1064 450.343 69.1139Z" fill="#263238"/>
<path d="M471.711 51.3717C471.801 51.4317 468.507 56.2003 464.364 62.0202C460.22 67.8401 456.783 72.5035 456.693 72.4434C456.603 72.3833 459.897 67.6148 464.04 61.7949C468.184 55.975 471.62 51.3116 471.711 51.3717Z" fill="#263238"/>
<path d="M480.58 72.983C480.603 73.0882 476.76 73.9668 472.007 74.943C467.247 75.9193 463.374 76.6251 463.352 76.52C463.329 76.4149 467.172 75.5363 471.924 74.56C476.685 73.5838 480.557 72.8779 480.58 72.983Z" fill="#263238"/>
<path d="M224.821 176.126L198.23 312.649L194.748 330.522L372.265 329.651C380.229 329.614 387.29 322.547 389.854 312.056L421.333 183.163C423.281 175.195 419.01 166.912 412.963 166.912L233.296 167.1C229.325 167.107 225.858 170.802 224.821 176.126Z" fill="#518E99"/>
<g opacity="0.5">
<path d="M224.821 176.126L198.23 312.649L194.748 330.522L372.265 329.651C380.229 329.614 387.29 322.547 389.854 312.056L421.333 183.163C423.281 175.195 419.01 166.912 412.963 166.912L233.296 167.1C229.325 167.107 225.858 170.802 224.821 176.126Z" fill="black"/>
</g>
<path d="M355.24 303.406L336.448 152.156C335.681 145.961 330.733 141.335 324.897 141.358L283.68 141.493C280.627 141.5 277.702 142.799 275.536 145.097L255.969 165.869L141.341 166.469C134.34 166.507 128.956 173.123 129.881 180.565L147.335 320.355C148.109 326.542 153.043 331.161 158.871 331.146L358.639 330.755C380.891 331.213 383.012 324.658 383.012 324.658C357.511 330.29 355.24 303.421 355.24 303.406Z" fill="#518E99"/>
<g opacity="0.5">
<path d="M269.099 273.137L262.361 280.361L210.473 233.742L217.211 226.518L269.099 273.137Z" fill="white"/>
<path d="M259.541 224.918L266.986 231.609L220.031 281.96L212.586 275.277L259.541 224.918Z" fill="white"/>
</g>
<path d="M383.763 77.9289C383.281 77.7261 382.936 77.253 382.913 76.6973L382.612 69.7285C382.59 69.2929 382.778 68.8649 383.116 68.587C383.454 68.3092 383.906 68.204 384.334 68.3017C385.455 68.5645 386.696 68.3242 387.726 67.6333C388.681 66.995 389.32 66.0638 389.478 65.0651C389.643 64.0738 389.335 62.9699 388.636 62.0462C387.884 61.055 386.778 60.3941 385.673 60.2665C383.409 60.0036 380.965 61.7383 380.334 64.0513C380.131 64.7947 379.364 65.2378 378.612 65.035C377.852 64.8248 377.423 64.0588 377.626 63.3153C378.612 59.6807 382.372 57.0674 385.996 57.4804C387.876 57.6982 389.658 58.742 390.877 60.3566C392.035 61.8885 392.539 63.7659 392.253 65.5156C391.967 67.2729 390.884 68.8949 389.282 69.9613C388.124 70.7347 386.801 71.1553 385.477 71.2003L385.71 76.5772C385.741 77.3506 385.146 78.004 384.372 78.034C384.161 78.049 383.951 78.0115 383.763 77.9289Z" fill="#518E99"/>
<path d="M385.82 80.7861C385.865 81.4169 385.384 81.9651 384.752 82.0101C384.12 82.0552 383.571 81.5746 383.526 80.9438C383.481 80.313 383.963 79.7648 384.594 79.7197C385.226 79.6747 385.775 80.1553 385.82 80.7861Z" fill="#518E99"/>
<path d="M359.596 68.1002C359.604 68.1002 359.627 67.9425 359.664 67.6421C359.702 67.3192 359.747 66.8686 359.815 66.2979C359.845 65.7046 360.003 64.9837 360.176 64.1426C360.273 63.7221 360.326 63.2565 360.484 62.7834C360.634 62.3103 360.785 61.7997 360.95 61.2665C361.68 59.1563 362.8 56.6256 364.688 54.1099C366.56 51.6017 369.2 49.1161 372.584 47.2387C374.253 46.2474 376.156 45.5566 378.156 44.9408C380.186 44.4602 382.337 44.0472 384.585 44.0997C385.706 44.0396 386.841 44.2049 388 44.3025C388.579 44.355 389.143 44.5127 389.722 44.6104C390.301 44.7155 390.887 44.8281 391.451 45.0309C393.775 45.6242 396.031 46.7205 398.174 48.0723C402.491 50.7832 406.123 55.1913 408.116 60.5381C409.116 63.2115 409.589 66.1402 409.589 69.1064C409.65 72.0727 409.071 75.084 408.018 77.9226L407.679 78.7787L407.634 78.8914L407.679 78.9965C409.567 83.337 411.417 87.5874 413.207 91.7101L413.522 91.3497C409.642 89.8628 405.875 88.4134 402.257 87.0317L402.115 86.9791L402.002 87.0843C398.873 90.1106 395.144 92.1532 391.368 93.212C387.578 94.2784 383.758 94.3309 380.292 93.7152C376.81 93.0994 373.681 91.7702 371.064 90.0655C368.448 88.3609 366.342 86.2807 364.725 84.1706C363.116 82.0378 362.056 79.8451 361.258 77.8926C360.552 75.8951 360.123 74.1228 359.912 72.6509C359.822 71.915 359.747 71.2692 359.679 70.6985C359.664 70.1353 359.649 69.6621 359.642 69.2641C359.627 68.8962 359.619 68.6033 359.612 68.3855C359.612 68.2053 359.604 68.1002 359.596 68.1002C359.589 68.1002 359.581 68.1978 359.581 68.4005C359.581 68.6183 359.574 68.9112 359.566 69.2792C359.566 69.6772 359.566 70.1578 359.566 70.721C359.627 71.2917 359.694 71.9526 359.762 72.6885C359.95 74.1679 360.356 75.9626 361.048 77.9902C361.83 79.9727 362.883 82.1955 364.492 84.3733C366.116 86.521 368.229 88.6462 370.876 90.396C373.516 92.1457 376.689 93.5124 380.224 94.1507C383.751 94.789 387.631 94.7515 391.489 93.6776C395.339 92.6038 399.144 90.5386 402.34 87.4597L402.092 87.5123C405.702 88.9016 409.469 90.3509 413.349 91.8528L413.913 92.0706L413.665 91.4923C411.876 87.3696 410.026 83.1117 408.146 78.7712V78.989L408.492 78.1104C409.574 75.2117 410.161 72.1253 410.101 69.0989C410.101 66.0726 409.612 63.0763 408.589 60.3428C406.551 54.8834 402.829 50.3927 398.43 47.6442C396.234 46.27 393.94 45.1661 391.572 44.5653C390.993 44.3701 390.398 44.2574 389.812 44.1448C389.225 44.0472 388.646 43.8895 388.06 43.8369C386.887 43.7393 385.736 43.5816 384.593 43.6492C382.307 43.6041 380.126 44.0321 378.066 44.5278C376.035 45.1586 374.11 45.872 372.426 46.8858C369.004 48.8157 366.349 51.3464 364.469 53.9072C362.582 56.4679 361.469 59.0437 360.77 61.1764C360.612 61.7171 360.461 62.2277 360.318 62.7158C360.168 63.1964 360.123 63.6695 360.033 64.0901C359.867 64.9462 359.732 65.6671 359.717 66.2678C359.672 66.8461 359.642 67.2891 359.619 67.6196C359.589 67.95 359.581 68.1002 359.596 68.1002Z" fill="#263238"/>
</svg>
