<svg width="67" height="67" viewBox="0 0 67 67" fill="none" xmlns="http://www.w3.org/2000/svg">
    <path d="M27.517 27.488H1.71484L8.88582 11.4669C9.01967 11.1117 9.24926 10.8103 9.54356 10.6035C9.83786 10.3966 10.1827 10.2943 10.5315 10.3102H39.476L35.2837 21.7949C34.6473 23.4852 33.5691 24.9289 32.1862 25.9426C30.8033 26.9563 29.178 27.4943 27.517 27.488Z" fill="url(#paint0_linear_7607_1345)"/>
    <path d="M34.3284 67.0009H20.2178C19.1146 67.0007 18.0346 66.6805 17.1055 66.078C16.1764 65.4755 15.4372 64.6161 14.9754 63.6014L0.510663 31.6335C0.165369 30.8768 -0.00896677 30.0516 0.000355068 29.2181C0.00967691 28.3845 0.202421 27.5635 0.56455 26.8149L8.15486 11.291C8.29625 10.9987 8.51514 10.752 8.78704 10.5785C9.05894 10.405 9.37313 10.3116 9.69448 10.3086H10.88C8.89387 10.3086 9.16331 11.447 9.80995 12.9362L10.0948 13.5756L27.9543 53.0364L34.3284 67.0009Z" fill="url(#paint1_linear_7607_1345)"/>
    <path d="M66.9386 0L41.0858 63.38C40.6519 64.4404 39.928 65.345 39.004 65.9814C38.0799 66.6177 36.9965 66.9578 35.8881 66.9594H22.4344C21.2424 67.0631 20.0421 66.9679 18.8789 66.6775C21.312 66.7323 23.3986 64.3277 24.634 61.5707V61.5002C24.7093 61.3123 24.7922 61.1321 24.86 60.9441L28.1293 52.9394L47.5339 5.38089C48.1813 3.78738 49.2663 2.42772 50.653 1.47203C52.0398 0.516344 53.6668 0.00704744 55.3305 0.00784008L66.9386 0Z" fill="url(#paint2_linear_7607_1345)"/>
    <path d="M58.3594 66.9998C63.0992 66.9998 66.9415 63.154 66.9415 58.41C66.9415 53.6661 63.0992 49.8203 58.3594 49.8203C53.6197 49.8203 49.7773 53.6661 49.7773 58.41C49.7773 63.154 53.6197 66.9998 58.3594 66.9998Z" fill="url(#paint3_linear_7607_1345)"/>
    <defs>
        <linearGradient id="paint0_linear_7607_1345" x1="32.2648" y1="9.37473" x2="29.131" y2="31.5048" gradientUnits="userSpaceOnUse">
            <stop stop-color="#A21B51"/>
            <stop offset="1" stop-color="#D51E6D"/>
        </linearGradient>
        <linearGradient id="paint1_linear_7607_1345" x1="27.7727" y1="7.22684" x2="-2.51665" y2="66.1505" gradientUnits="userSpaceOnUse">
            <stop stop-color="#A21B51"/>
            <stop offset="1" stop-color="#D51E6D"/>
        </linearGradient>
        <linearGradient id="paint2_linear_7607_1345" x1="57.7607" y1="-3.64208" x2="25.6117" y2="70.4455" gradientUnits="userSpaceOnUse">
            <stop stop-color="#A21B51"/>
            <stop offset="1" stop-color="#D51E6D"/>
        </linearGradient>
        <linearGradient id="paint3_linear_7607_1345" x1="63.6637" y1="48.8864" x2="57.2532" y2="69.4632" gradientUnits="userSpaceOnUse">
            <stop stop-color="#A21B51"/>
            <stop offset="1" stop-color="#D51E6D"/>
        </linearGradient>
    </defs>
</svg>